<svg width="342" height="20" viewBox="0 0 342 20" fill="none" xmlns="http://www.w3.org/2000/svg">
<g clip-path="url(#clip0_11_357)">
<path d="M9.07088 0.615946C9.41462 -0.205316 10.5854 -0.205315 10.9291 0.615948L12.9579 5.46318C13.1029 5.80941 13.4306 6.04597 13.8067 6.07593L19.0727 6.49546C19.9649 6.56655 20.3267 7.673 19.6469 8.25166L15.6348 11.6669C15.3482 11.9109 15.223 12.2937 15.3106 12.6584L16.5363 17.7649C16.744 18.6301 15.7969 19.3139 15.033 18.8503L10.5245 16.1138C10.2025 15.9183 9.7975 15.9183 9.47548 16.1138L4.96699 18.8503C4.20311 19.3139 3.25596 18.6301 3.46363 17.7649L4.68942 12.6584C4.77698 12.2937 4.65182 11.9109 4.36526 11.6669L0.353062 8.25166C-0.326718 7.673 0.0350679 6.56655 0.927291 6.49546L6.19336 6.07593C6.5695 6.04597 6.89716 5.80941 7.04207 5.46318L9.07088 0.615946Z" fill="black"/>
</g>
<g clip-path="url(#clip1_11_357)">
<path d="M57.0709 0.615946C57.4146 -0.205316 58.5854 -0.205315 58.9291 0.615948L60.9579 5.46318C61.1029 5.80941 61.4306 6.04597 61.8067 6.07593L67.0727 6.49546C67.9649 6.56655 68.3267 7.673 67.6469 8.25166L63.6348 11.6669C63.3482 11.9109 63.223 12.2937 63.3106 12.6584L64.5363 17.7649C64.744 18.6301 63.7969 19.3139 63.033 18.8503L58.5245 16.1138C58.2025 15.9183 57.7975 15.9183 57.4755 16.1138L52.967 18.8503C52.2031 19.3139 51.256 18.6301 51.4636 17.7649L52.6894 12.6584C52.777 12.2937 52.6518 11.9109 52.3653 11.6669L48.3531 8.25166C47.6733 7.673 48.0351 6.56655 48.9273 6.49546L54.1934 6.07593C54.5695 6.04597 54.8972 5.80941 55.0421 5.46318L57.0709 0.615946Z" fill="black"/>
</g>
<g clip-path="url(#clip2_11_357)">
<path d="M105.071 0.615946C105.415 -0.205316 106.585 -0.205315 106.929 0.615948L108.958 5.46318C109.103 5.80941 109.431 6.04597 109.807 6.07593L115.073 6.49546C115.965 6.56655 116.327 7.673 115.647 8.25166L111.635 11.6669C111.348 11.9109 111.223 12.2937 111.311 12.6584L112.536 17.7649C112.744 18.6301 111.797 19.3139 111.033 18.8503L106.525 16.1138C106.202 15.9183 105.797 15.9183 105.475 16.1138L100.967 18.8503C100.203 19.3139 99.256 18.6301 99.4636 17.7649L100.689 12.6584C100.777 12.2937 100.652 11.9109 100.365 11.6669L96.3531 8.25166C95.6733 7.673 96.0351 6.56655 96.9273 6.49546L102.193 6.07593C102.569 6.04597 102.897 5.80941 103.042 5.46318L105.071 0.615946Z" fill="black"/>
</g>
<g clip-path="url(#clip3_11_357)">
<path d="M33.0709 0.615946C33.4146 -0.205316 34.5854 -0.205315 34.9291 0.615948L36.9579 5.46318C37.1029 5.80941 37.4306 6.04597 37.8067 6.07593L43.0727 6.49546C43.9649 6.56655 44.3267 7.673 43.6469 8.25166L39.6348 11.6669C39.3482 11.9109 39.223 12.2937 39.3106 12.6584L40.5363 17.7649C40.744 18.6301 39.7969 19.3139 39.033 18.8503L34.5245 16.1138C34.2025 15.9183 33.7975 15.9183 33.4755 16.1138L28.967 18.8503C28.2031 19.3139 27.256 18.6301 27.4636 17.7649L28.6894 12.6584C28.777 12.2937 28.6518 11.9109 28.3653 11.6669L24.3531 8.25166C23.6733 7.673 24.0351 6.56655 24.9273 6.49546L30.1934 6.07593C30.5695 6.04597 30.8972 5.80941 31.0421 5.46318L33.0709 0.615946Z" fill="black"/>
</g>
<g clip-path="url(#clip4_11_357)">
<path d="M81.0709 0.615946C81.4146 -0.205316 82.5854 -0.205315 82.9291 0.615948L84.9579 5.46318C85.1029 5.80941 85.4306 6.04597 85.8067 6.07593L91.0727 6.49546C91.9649 6.56655 92.3267 7.673 91.6469 8.25166L87.6348 11.6669C87.3482 11.9109 87.223 12.2937 87.3106 12.6584L88.5363 17.7649C88.744 18.6301 87.7969 19.3139 87.033 18.8503L82.5245 16.1138C82.2025 15.9183 81.7975 15.9183 81.4755 16.1138L76.967 18.8503C76.2031 19.3139 75.256 18.6301 75.4636 17.7649L76.6894 12.6584C76.777 12.2937 76.6518 11.9109 76.3653 11.6669L72.3531 8.25166C71.6733 7.673 72.0351 6.56655 72.9273 6.49546L78.1934 6.07593C78.5695 6.04597 78.8972 5.80941 79.0421 5.46318L81.0709 0.615946Z" fill="black"/>
</g>
<defs>
<clipPath id="clip0_11_357">
<rect width="20" height="19" fill="white"/>
</clipPath>
<clipPath id="clip1_11_357">
<rect width="20" height="19" fill="white" transform="translate(48)"/>
</clipPath>
<clipPath id="clip2_11_357">
<rect width="20" height="19" fill="white" transform="translate(96)"/>
</clipPath>
<clipPath id="clip3_11_357">
<rect width="20" height="19" fill="white" transform="translate(24)"/>
</clipPath>
<clipPath id="clip4_11_357">
<rect width="20" height="19" fill="white" transform="translate(72)"/>
</clipPath>
</defs>
</svg>
